<?xml version="1.0" encoding="utf-8"?>
<!-- Generator: Adobe Illustrator 16.0.0, SVG Export Plug-In . SVG Version: 6.00 Build 0)  -->
<!DOCTYPE svg PUBLIC "-//W3C//DTD SVG 1.1//EN" "http://www.w3.org/Graphics/SVG/1.1/DTD/svg11.dtd">
<svg version="1.1" id="Layer_1" xmlns="http://www.w3.org/2000/svg" xmlns:xlink="http://www.w3.org/1999/xlink" x="0px" y="0px"
	 width="90px" height="90px" viewBox="0 0 90 90" enable-background="new 0 0 90 90" xml:space="preserve">
<path fill-rule="evenodd" clip-rule="evenodd" fill="#734325" d="M45.769,57.124V49.26h-1.542v7.864
	C44.705,57.733,45.223,57.688,45.769,57.124"/>
<path fill-rule="evenodd" clip-rule="evenodd" fill="#8C5D3F" d="M45.137,48.106H46.4v8.954c-0.432,0.311-0.854,0.483-1.264,0.502
	V48.106z"/>
<line fill-rule="evenodd" clip-rule="evenodd" fill="#734325" x1="44.337" y1="54.79" x2="44.337" y2="50.881"/>
<line fill-rule="evenodd" clip-rule="evenodd" fill="#8C5D3F" x1="46.29" y1="50.881" x2="46.29" y2="54.79"/>
<path fill-rule="evenodd" clip-rule="evenodd" fill="#99CF3C" d="M45.314,31.546c3.608,5.745,5.632,12.192,5.663,19.528
	c-3.702,1.185-7.471,1.302-11.329,0C40.006,44.566,42.174,38.056,45.314,31.546z"/>
<path fill-rule="evenodd" clip-rule="evenodd" fill="#B5E85D" d="M45.314,31.546c3.608,5.745,5.632,12.192,5.663,19.528
	c-1.87,0.598-3.759,0.924-5.665,0.933C44.86,49.51,44.734,37.312,45.314,31.546z"/>
</svg>
