<?xml version="1.0" encoding="utf-8"?>
<!-- Generator: Adobe Illustrator 16.0.0, SVG Export Plug-In . SVG Version: 6.00 Build 0)  -->
<!DOCTYPE svg PUBLIC "-//W3C//DTD SVG 1.1//EN" "http://www.w3.org/Graphics/SVG/1.1/DTD/svg11.dtd">
<svg version="1.1" id="Layer_1" xmlns="http://www.w3.org/2000/svg" xmlns:xlink="http://www.w3.org/1999/xlink" x="0px" y="0px"
	 width="1233px" height="143px" viewBox="0 0 1233 143" enable-background="new 0 0 1233 143" xml:space="preserve">
<path fill="#FFFFFF" d="M243.961,40.866h-0.548c0.697-0.694,1.128-1.654,1.128-2.715c0-2.117-1.716-3.833-3.833-3.833h-41.124
	c-2.117,0-3.833,1.716-3.833,3.833c0,1.061,0.432,2.021,1.128,2.715h-9.042c-2.117,0-3.833,1.716-3.833,3.833
	c0,2.117,1.716,3.834,3.833,3.834h56.124c2.117,0,3.833-1.717,3.833-3.834C247.794,42.583,246.078,40.866,243.961,40.866z"/>
<path fill="#FFFFFF" d="M199.533,97.859h-0.295c0.375-0.374,0.608-0.892,0.608-1.464c0-1.14-0.924-2.064-2.065-2.064h-22.155
	c-1.141,0-2.065,0.925-2.065,2.064c0,0.572,0.232,1.09,0.607,1.464h-4.871c-1.141,0-2.065,0.924-2.065,2.064
	c0,1.142,0.925,2.065,2.065,2.065h30.236c1.141,0,2.065-0.924,2.065-2.065C201.599,98.783,200.674,97.859,199.533,97.859z"/>
<path fill="#FFFFFF" d="M166.729,10.645h-0.18c0.229-0.228,0.371-0.543,0.371-0.891c0-0.694-0.563-1.257-1.258-1.257H152.17
	c-0.694,0-1.257,0.563-1.257,1.257c0,0.348,0.141,0.664,0.37,0.891h-2.966c-0.695,0-1.258,0.563-1.258,1.257
	c0,0.695,0.563,1.258,1.258,1.258h18.413c0.694,0,1.258-0.562,1.258-1.258C167.987,11.208,167.424,10.645,166.729,10.645z"/>
<path fill="#FFFFFF" d="M412.138,66.333h-0.783c0.995-0.959,1.612-2.286,1.612-3.752c0-2.926-2.452-5.297-5.477-5.297h-58.757
	c-3.025,0-5.478,2.372-5.478,5.297c0,1.466,0.617,2.792,1.612,3.752H331.95c-3.025,0-5.478,2.371-5.478,5.297
	c0,2.925,2.452,5.297,5.478,5.297h80.188c3.025,0,5.478-2.372,5.478-5.297C417.616,68.705,415.164,66.333,412.138,66.333z"/>
<path fill="#FFFFFF" d="M477.35,130.03h-0.738c0.939-0.925,1.52-2.202,1.52-3.615c0-2.819-2.312-5.104-5.165-5.104H417.56
	c-2.852,0-5.165,2.285-5.165,5.104c0,1.413,0.582,2.69,1.521,3.615h-12.182c-2.854,0-5.166,2.285-5.166,5.104
	s2.312,5.104,5.166,5.104h75.616c2.853,0,5.166-2.285,5.166-5.104S480.203,130.03,477.35,130.03z"/>
<path fill="#FFFFFF" d="M567.975,16.498H567.5c0.603-0.594,0.976-1.414,0.976-2.321c0-1.81-1.484-3.277-3.315-3.277h-35.572
	c-1.831,0-3.315,1.467-3.315,3.277c0,0.907,0.373,1.727,0.976,2.321h-7.821c-1.832,0-3.316,1.466-3.316,3.276
	c0,1.809,1.484,3.276,3.316,3.276h48.546c1.832,0,3.316-1.467,3.316-3.276C571.291,17.964,569.806,16.498,567.975,16.498z"/>
<path fill="#FFFFFF" d="M669.239,84.114H668.7c0.686-0.676,1.109-1.606,1.109-2.637c0-2.056-1.686-3.722-3.767-3.722h-40.397
	c-2.08,0-3.766,1.666-3.766,3.722c0,1.03,0.424,1.961,1.109,2.637h-8.883c-2.081,0-3.767,1.666-3.767,3.72
	c0,2.055,1.686,3.722,3.767,3.722h55.133c2.081,0,3.767-1.667,3.767-3.722C673.006,85.78,671.32,84.114,669.239,84.114z"/>
<path fill="#FFFFFF" d="M674.188,16.154h-0.158c0.202-0.199,0.327-0.473,0.327-0.777c0-0.606-0.497-1.097-1.11-1.097h-11.904
	c-0.612,0-1.109,0.491-1.109,1.097c0,0.304,0.125,0.578,0.327,0.777h-2.617c-0.613,0-1.11,0.491-1.11,1.096
	c0,0.605,0.497,1.097,1.11,1.097h16.245c0.613,0,1.11-0.491,1.11-1.097C675.298,16.646,674.801,16.154,674.188,16.154z"/>
<path fill="#FFFFFF" d="M812.631,15.364h-0.377c0.482-0.475,0.78-1.127,0.78-1.851c0-1.444-1.185-2.614-2.646-2.614h-28.37
	c-1.46,0-2.645,1.169-2.645,2.614c0,0.724,0.298,1.376,0.78,1.851h-6.237c-1.462,0-2.646,1.171-2.646,2.611
	c0,1.443,1.185,2.616,2.646,2.616h38.715c1.462,0,2.646-1.173,2.646-2.616C815.277,16.535,814.093,15.364,812.631,15.364z"/>
<path fill="#FFFFFF" d="M798.036,123.492h-0.537c0.688-0.677,1.112-1.608,1.112-2.638c0-2.061-1.688-3.727-3.772-3.727h-40.438
	c-2.081,0-3.769,1.666-3.769,3.727c0,1.029,0.424,1.961,1.111,2.638h-8.89c-2.084,0-3.772,1.669-3.772,3.722
	c0,2.056,1.688,3.729,3.772,3.729h55.182c2.084,0,3.772-1.674,3.772-3.729C801.809,125.161,800.12,123.492,798.036,123.492z"/>
<path fill="#FFFFFF" d="M992.202,111.654h-0.777c0.995-0.979,1.61-2.328,1.61-3.818c0-2.982-2.444-5.395-5.462-5.395h-58.537
	c-3.013,0-5.456,2.412-5.456,5.395c0,1.49,0.614,2.839,1.609,3.818H912.32c-3.017,0-5.461,2.416-5.461,5.388
	c0,2.976,2.444,5.398,5.461,5.398h79.882c3.017,0,5.461-2.423,5.461-5.398C997.663,114.07,995.219,111.654,992.202,111.654z"/>
<path fill="#FFFFFF" d="M1041.997,24.892h-0.526c0.674-0.665,1.091-1.58,1.091-2.591c0-2.023-1.658-3.659-3.704-3.659h-39.712
	c-2.044,0-3.702,1.636-3.702,3.659c0,1.011,0.418,1.926,1.093,2.591h-8.731c-2.047,0-3.704,1.638-3.704,3.654
	c0,2.019,1.657,3.663,3.704,3.663h54.192c2.047,0,3.704-1.644,3.704-3.663C1045.701,26.53,1044.044,24.892,1041.997,24.892z"/>
<path fill="#FFFFFF" d="M1174.624,101.406h-0.536c0.686-0.62,1.109-1.473,1.109-2.414c0-1.885-1.686-3.408-3.766-3.408h-40.368
	c-2.078,0-3.765,1.523-3.765,3.408c0,0.941,0.425,1.794,1.112,2.414h-8.877c-2.081,0-3.766,1.524-3.766,3.403
	c0,1.88,1.685,3.412,3.766,3.412h55.09c2.081,0,3.765-1.532,3.765-3.412C1178.389,102.931,1176.705,101.406,1174.624,101.406z"/>
<g>
	
		<image overflow="visible" width="627" height="366" xlink:href="A8C36101AB0931D4.png"  transform="matrix(0.24 0 0 0.24 1102.4893 -25.5708)">
	</image>
</g>
<g>
	
		<image overflow="visible" width="636" height="368" xlink:href="A8C36101AB0931D5.png"  transform="matrix(0.24 0 0 0.24 783.5527 3.4556)">
	</image>
</g>
<g>
	
		<image overflow="visible" width="438" height="326" xlink:href="A8C36101AB0931D3.png"  transform="matrix(0.24 0 0 0.24 685.5254 13.8569)">
	</image>
</g>
<g>
	
		<image overflow="visible" width="457" height="332" xlink:href="A8C36101AB0931DC.png"  transform="matrix(0.24 0 0 0.24 512.5591 79.7441)">
	</image>
</g>
<g>
	
		<image overflow="visible" width="457" height="332" xlink:href="A8C36101AB0931DF.png"  transform="matrix(0.24 0 0 0.24 449.0649 41.7554)">
	</image>
</g>
<g>
	
		<image overflow="visible" width="558" height="353" xlink:href="A8C36101AB0931DD.png"  transform="matrix(0.24 0 0 0.24 267.7515 -20.0806)">
	</image>
</g>
<g>
	
		<image overflow="visible" width="647" height="370" xlink:href="A8C36101AB0931D2.png"  transform="matrix(0.24 0 0 0.24 206.3379 67.6729)">
	</image>
</g>
<g>
	
		<image overflow="visible" width="647" height="370" xlink:href="A8C36101AB0931D6.png"  transform="matrix(0.24 0 0 0.24 -1.7627 -2.9697)">
	</image>
</g>
<g>
	
		<image overflow="visible" width="512" height="343" xlink:href="A8C36101AB0931D7.png"  transform="matrix(0.24 0 0 0.24 29.583 81.1904)">
	</image>
</g>
</svg>
