<?xml version="1.0" encoding="utf-8"?>
<!-- Generator: Adobe Illustrator 16.0.0, SVG Export Plug-In . SVG Version: 6.00 Build 0)  -->
<!DOCTYPE svg PUBLIC "-//W3C//DTD SVG 1.1//EN" "http://www.w3.org/Graphics/SVG/1.1/DTD/svg11.dtd">
<svg version="1.1" id="Layer_1" xmlns="http://www.w3.org/2000/svg" xmlns:xlink="http://www.w3.org/1999/xlink" x="0px" y="0px"
	 width="90px" height="90px" viewBox="0 0 90 90" enable-background="new 0 0 90 90" xml:space="preserve">
<path fill="#FFFFFF" d="M12.99,34.87c0,2.784,2.038,5.041,4.553,5.041h61.781c2.514,0,4.552-2.257,4.552-5.041l0,0
	c0-2.783-2.038-5.04-4.552-5.04H17.543C15.028,29.83,12.99,32.087,12.99,34.87L12.99,34.87z"/>
<path fill="#FFFFFF" d="M-0.745,44.735c0,3.525,2.58,6.382,5.764,6.382h78.217c3.184,0,5.765-2.857,5.765-6.382l0,0
	c0-3.523-2.581-6.38-5.765-6.38H5.019C1.835,38.355-0.745,41.212-0.745,44.735L-0.745,44.735z"/>
</svg>
