<?xml version="1.0" encoding="utf-8"?>
<!-- Generator: Adobe Illustrator 16.0.0, SVG Export Plug-In . SVG Version: 6.00 Build 0)  -->
<!DOCTYPE svg PUBLIC "-//W3C//DTD SVG 1.1//EN" "http://www.w3.org/Graphics/SVG/1.1/DTD/svg11.dtd">
<svg version="1.1" id="Layer_1" xmlns="http://www.w3.org/2000/svg" xmlns:xlink="http://www.w3.org/1999/xlink" x="0px" y="0px"
	 width="90px" height="90px" viewBox="0 0 90 90" enable-background="new 0 0 90 90" xml:space="preserve">
<path fill-rule="evenodd" clip-rule="evenodd" fill="#FBE752" d="M44.915,63.426c9.833,0,17.853-8.02,17.853-17.852
	c0-9.833-8.02-17.853-17.853-17.853s-17.853,8.02-17.853,17.853C27.062,55.406,35.082,63.426,44.915,63.426z"/>
<path fill-rule="evenodd" clip-rule="evenodd" fill="#FBE752" d="M44.915,14.168l2.694,10.046c-0.883-0.11-1.782-0.168-2.694-0.168
	c-0.913,0-1.812,0.057-2.695,0.168L44.915,14.168L44.915,14.168z"/>
<path fill-rule="evenodd" clip-rule="evenodd" fill="#FBE752" d="M55.29,26.708l8.085-6.542l-3.727,9.714
	C58.339,28.651,56.875,27.583,55.29,26.708L55.29,26.708z"/>
<path fill-rule="evenodd" clip-rule="evenodd" fill="#FBE752" d="M64.397,36.41l10.386-0.541l-8.721,5.667
	C65.72,39.738,65.156,38.019,64.397,36.41L64.397,36.41z"/>
<path fill-rule="evenodd" clip-rule="evenodd" fill="#FBE752" d="M66.062,49.611l8.721,5.668l-10.386-0.541
	C65.156,53.127,65.721,51.41,66.062,49.611L66.062,49.611z"/>
<path fill-rule="evenodd" clip-rule="evenodd" fill="#FBE752" d="M59.648,61.268l3.727,9.715l-8.085-6.543
	C56.875,63.564,58.34,62.496,59.648,61.268L59.648,61.268z"/>
<path fill-rule="evenodd" clip-rule="evenodd" fill="#FBE752" d="M44.915,76.979L42.22,66.934c0.884,0.109,1.782,0.168,2.695,0.168
	c0.912,0,1.812-0.057,2.694-0.168l0,0L44.915,76.979"/>
<path fill-rule="evenodd" clip-rule="evenodd" fill="#FBE752" d="M34.539,64.439l-8.084,6.543l3.726-9.715
	C31.49,62.496,32.954,63.564,34.539,64.439L34.539,64.439z"/>
<path fill-rule="evenodd" clip-rule="evenodd" fill="#FBE752" d="M25.432,54.738l-10.385,0.541l8.721-5.668
	C24.109,51.41,24.673,53.129,25.432,54.738L25.432,54.738z"/>
<path fill-rule="evenodd" clip-rule="evenodd" fill="#FBE752" d="M23.768,41.536l-8.721-5.667l10.385,0.541
	C24.673,38.02,24.108,39.738,23.768,41.536L23.768,41.536z"/>
<path fill-rule="evenodd" clip-rule="evenodd" fill="#FBE752" d="M30.181,29.88l-3.726-9.714l8.084,6.542
	C32.954,27.583,31.49,28.651,30.181,29.88z"/>
<path fill-rule="evenodd" clip-rule="evenodd" fill="#FAC212" d="M44.915,58.018c6.854,0,12.444-5.59,12.444-12.444
	c0-6.854-5.591-12.444-12.444-12.444c-6.854,0-12.444,5.591-12.444,12.444C32.471,52.428,38.061,58.018,44.915,58.018z"/>
</svg>
